<?xml version="1.0" encoding="utf-8" standalone="no"?>
<!DOCTYPE svg PUBLIC "-//W3C//DTD SVG 1.1//EN"
  "http://www.w3.org/Graphics/SVG/1.1/DTD/svg11.dtd">
<!-- Created with matplotlib (https://matplotlib.org/) -->
<svg height="345.6pt" version="1.1" viewBox="0 0 460.8 345.6" width="460.8pt" xmlns="http://www.w3.org/2000/svg" xmlns:xlink="http://www.w3.org/1999/xlink">
 <defs>
  <style type="text/css">
*{stroke-linecap:butt;stroke-linejoin:round;white-space:pre;}
  </style>
 </defs>
 <g id="figure_1">
  <g id="patch_1">
   <path d="M 0 345.6 
L 460.8 345.6 
L 460.8 0 
L 0 0 
z
" style="fill:#ffffff;"/>
  </g>
  <g id="axes_1">
   <g id="patch_2">
    <path d="M 57.6 307.584 
L 414.72 307.584 
L 414.72 41.472 
L 57.6 41.472 
z
" style="fill:#ffffff;"/>
   </g>
   <g id="matplotlib.axis_1">
    <g id="xtick_1">
     <g id="line2d_1">
      <defs>
       <path d="M 0 0 
L 0 3.5 
" id="m292987c2f1" style="stroke:#000000;stroke-width:0.8;"/>
      </defs>
      <g>
       <use style="stroke:#000000;stroke-width:0.8;" x="57.6" xlink:href="#m292987c2f1" y="307.584"/>
      </g>
     </g>
     <g id="text_1">
      <!-- 0 -->
      <defs>
       <path d="M 31.78125 66.40625 
Q 24.171875 66.40625 20.328125 58.90625 
Q 16.5 51.421875 16.5 36.375 
Q 16.5 21.390625 20.328125 13.890625 
Q 24.171875 6.390625 31.78125 6.390625 
Q 39.453125 6.390625 43.28125 13.890625 
Q 47.125 21.390625 47.125 36.375 
Q 47.125 51.421875 43.28125 58.90625 
Q 39.453125 66.40625 31.78125 66.40625 
z
M 31.78125 74.21875 
Q 44.046875 74.21875 50.515625 64.515625 
Q 56.984375 54.828125 56.984375 36.375 
Q 56.984375 17.96875 50.515625 8.265625 
Q 44.046875 -1.421875 31.78125 -1.421875 
Q 19.53125 -1.421875 13.0625 8.265625 
Q 6.59375 17.96875 6.59375 36.375 
Q 6.59375 54.828125 13.0625 64.515625 
Q 19.53125 74.21875 31.78125 74.21875 
z
" id="DejaVuSans-48"/>
      </defs>
      <g transform="translate(54.41875 322.182437)scale(0.1 -0.1)">
       <use xlink:href="#DejaVuSans-48"/>
      </g>
     </g>
    </g>
    <g id="xtick_2">
     <g id="line2d_2">
      <g>
       <use style="stroke:#000000;stroke-width:0.8;" x="117.12" xlink:href="#m292987c2f1" y="307.584"/>
      </g>
     </g>
     <g id="text_2">
      <!-- 10 -->
      <defs>
       <path d="M 12.40625 8.296875 
L 28.515625 8.296875 
L 28.515625 63.921875 
L 10.984375 60.40625 
L 10.984375 69.390625 
L 28.421875 72.90625 
L 38.28125 72.90625 
L 38.28125 8.296875 
L 54.390625 8.296875 
L 54.390625 0 
L 12.40625 0 
z
" id="DejaVuSans-49"/>
      </defs>
      <g transform="translate(110.7575 322.182437)scale(0.1 -0.1)">
       <use xlink:href="#DejaVuSans-49"/>
       <use x="63.623047" xlink:href="#DejaVuSans-48"/>
      </g>
     </g>
    </g>
    <g id="xtick_3">
     <g id="line2d_3">
      <g>
       <use style="stroke:#000000;stroke-width:0.8;" x="176.64" xlink:href="#m292987c2f1" y="307.584"/>
      </g>
     </g>
     <g id="text_3">
      <!-- 20 -->
      <defs>
       <path d="M 19.1875 8.296875 
L 53.609375 8.296875 
L 53.609375 0 
L 7.328125 0 
L 7.328125 8.296875 
Q 12.9375 14.109375 22.625 23.890625 
Q 32.328125 33.6875 34.8125 36.53125 
Q 39.546875 41.84375 41.421875 45.53125 
Q 43.3125 49.21875 43.3125 52.78125 
Q 43.3125 58.59375 39.234375 62.25 
Q 35.15625 65.921875 28.609375 65.921875 
Q 23.96875 65.921875 18.8125 64.3125 
Q 13.671875 62.703125 7.8125 59.421875 
L 7.8125 69.390625 
Q 13.765625 71.78125 18.9375 73 
Q 24.125 74.21875 28.421875 74.21875 
Q 39.75 74.21875 46.484375 68.546875 
Q 53.21875 62.890625 53.21875 53.421875 
Q 53.21875 48.921875 51.53125 44.890625 
Q 49.859375 40.875 45.40625 35.40625 
Q 44.1875 33.984375 37.640625 27.21875 
Q 31.109375 20.453125 19.1875 8.296875 
z
" id="DejaVuSans-50"/>
      </defs>
      <g transform="translate(170.2775 322.182437)scale(0.1 -0.1)">
       <use xlink:href="#DejaVuSans-50"/>
       <use x="63.623047" xlink:href="#DejaVuSans-48"/>
      </g>
     </g>
    </g>
    <g id="xtick_4">
     <g id="line2d_4">
      <g>
       <use style="stroke:#000000;stroke-width:0.8;" x="236.16" xlink:href="#m292987c2f1" y="307.584"/>
      </g>
     </g>
     <g id="text_4">
      <!-- 30 -->
      <defs>
       <path d="M 40.578125 39.3125 
Q 47.65625 37.796875 51.625 33 
Q 55.609375 28.21875 55.609375 21.1875 
Q 55.609375 10.40625 48.1875 4.484375 
Q 40.765625 -1.421875 27.09375 -1.421875 
Q 22.515625 -1.421875 17.65625 -0.515625 
Q 12.796875 0.390625 7.625 2.203125 
L 7.625 11.71875 
Q 11.71875 9.328125 16.59375 8.109375 
Q 21.484375 6.890625 26.8125 6.890625 
Q 36.078125 6.890625 40.9375 10.546875 
Q 45.796875 14.203125 45.796875 21.1875 
Q 45.796875 27.640625 41.28125 31.265625 
Q 36.765625 34.90625 28.71875 34.90625 
L 20.21875 34.90625 
L 20.21875 43.015625 
L 29.109375 43.015625 
Q 36.375 43.015625 40.234375 45.921875 
Q 44.09375 48.828125 44.09375 54.296875 
Q 44.09375 59.90625 40.109375 62.90625 
Q 36.140625 65.921875 28.71875 65.921875 
Q 24.65625 65.921875 20.015625 65.03125 
Q 15.375 64.15625 9.8125 62.3125 
L 9.8125 71.09375 
Q 15.4375 72.65625 20.34375 73.4375 
Q 25.25 74.21875 29.59375 74.21875 
Q 40.828125 74.21875 47.359375 69.109375 
Q 53.90625 64.015625 53.90625 55.328125 
Q 53.90625 49.265625 50.4375 45.09375 
Q 46.96875 40.921875 40.578125 39.3125 
z
" id="DejaVuSans-51"/>
      </defs>
      <g transform="translate(229.7975 322.182437)scale(0.1 -0.1)">
       <use xlink:href="#DejaVuSans-51"/>
       <use x="63.623047" xlink:href="#DejaVuSans-48"/>
      </g>
     </g>
    </g>
    <g id="xtick_5">
     <g id="line2d_5">
      <g>
       <use style="stroke:#000000;stroke-width:0.8;" x="295.68" xlink:href="#m292987c2f1" y="307.584"/>
      </g>
     </g>
     <g id="text_5">
      <!-- 40 -->
      <defs>
       <path d="M 37.796875 64.3125 
L 12.890625 25.390625 
L 37.796875 25.390625 
z
M 35.203125 72.90625 
L 47.609375 72.90625 
L 47.609375 25.390625 
L 58.015625 25.390625 
L 58.015625 17.1875 
L 47.609375 17.1875 
L 47.609375 0 
L 37.796875 0 
L 37.796875 17.1875 
L 4.890625 17.1875 
L 4.890625 26.703125 
z
" id="DejaVuSans-52"/>
      </defs>
      <g transform="translate(289.3175 322.182437)scale(0.1 -0.1)">
       <use xlink:href="#DejaVuSans-52"/>
       <use x="63.623047" xlink:href="#DejaVuSans-48"/>
      </g>
     </g>
    </g>
    <g id="xtick_6">
     <g id="line2d_6">
      <g>
       <use style="stroke:#000000;stroke-width:0.8;" x="355.2" xlink:href="#m292987c2f1" y="307.584"/>
      </g>
     </g>
     <g id="text_6">
      <!-- 50 -->
      <defs>
       <path d="M 10.796875 72.90625 
L 49.515625 72.90625 
L 49.515625 64.59375 
L 19.828125 64.59375 
L 19.828125 46.734375 
Q 21.96875 47.46875 24.109375 47.828125 
Q 26.265625 48.1875 28.421875 48.1875 
Q 40.625 48.1875 47.75 41.5 
Q 54.890625 34.8125 54.890625 23.390625 
Q 54.890625 11.625 47.5625 5.09375 
Q 40.234375 -1.421875 26.90625 -1.421875 
Q 22.3125 -1.421875 17.546875 -0.640625 
Q 12.796875 0.140625 7.71875 1.703125 
L 7.71875 11.625 
Q 12.109375 9.234375 16.796875 8.0625 
Q 21.484375 6.890625 26.703125 6.890625 
Q 35.15625 6.890625 40.078125 11.328125 
Q 45.015625 15.765625 45.015625 23.390625 
Q 45.015625 31 40.078125 35.4375 
Q 35.15625 39.890625 26.703125 39.890625 
Q 22.75 39.890625 18.8125 39.015625 
Q 14.890625 38.140625 10.796875 36.28125 
z
" id="DejaVuSans-53"/>
      </defs>
      <g transform="translate(348.8375 322.182437)scale(0.1 -0.1)">
       <use xlink:href="#DejaVuSans-53"/>
       <use x="63.623047" xlink:href="#DejaVuSans-48"/>
      </g>
     </g>
    </g>
    <g id="xtick_7">
     <g id="line2d_7">
      <g>
       <use style="stroke:#000000;stroke-width:0.8;" x="414.72" xlink:href="#m292987c2f1" y="307.584"/>
      </g>
     </g>
     <g id="text_7">
      <!-- 60 -->
      <defs>
       <path d="M 33.015625 40.375 
Q 26.375 40.375 22.484375 35.828125 
Q 18.609375 31.296875 18.609375 23.390625 
Q 18.609375 15.53125 22.484375 10.953125 
Q 26.375 6.390625 33.015625 6.390625 
Q 39.65625 6.390625 43.53125 10.953125 
Q 47.40625 15.53125 47.40625 23.390625 
Q 47.40625 31.296875 43.53125 35.828125 
Q 39.65625 40.375 33.015625 40.375 
z
M 52.59375 71.296875 
L 52.59375 62.3125 
Q 48.875 64.0625 45.09375 64.984375 
Q 41.3125 65.921875 37.59375 65.921875 
Q 27.828125 65.921875 22.671875 59.328125 
Q 17.53125 52.734375 16.796875 39.40625 
Q 19.671875 43.65625 24.015625 45.921875 
Q 28.375 48.1875 33.59375 48.1875 
Q 44.578125 48.1875 50.953125 41.515625 
Q 57.328125 34.859375 57.328125 23.390625 
Q 57.328125 12.15625 50.6875 5.359375 
Q 44.046875 -1.421875 33.015625 -1.421875 
Q 20.359375 -1.421875 13.671875 8.265625 
Q 6.984375 17.96875 6.984375 36.375 
Q 6.984375 53.65625 15.1875 63.9375 
Q 23.390625 74.21875 37.203125 74.21875 
Q 40.921875 74.21875 44.703125 73.484375 
Q 48.484375 72.75 52.59375 71.296875 
z
" id="DejaVuSans-54"/>
      </defs>
      <g transform="translate(408.3575 322.182437)scale(0.1 -0.1)">
       <use xlink:href="#DejaVuSans-54"/>
       <use x="63.623047" xlink:href="#DejaVuSans-48"/>
      </g>
     </g>
    </g>
    <g id="text_8">
     <!-- frame index -->
     <defs>
      <path d="M 37.109375 75.984375 
L 37.109375 68.5 
L 28.515625 68.5 
Q 23.6875 68.5 21.796875 66.546875 
Q 19.921875 64.59375 19.921875 59.515625 
L 19.921875 54.6875 
L 34.71875 54.6875 
L 34.71875 47.703125 
L 19.921875 47.703125 
L 19.921875 0 
L 10.890625 0 
L 10.890625 47.703125 
L 2.296875 47.703125 
L 2.296875 54.6875 
L 10.890625 54.6875 
L 10.890625 58.5 
Q 10.890625 67.625 15.140625 71.796875 
Q 19.390625 75.984375 28.609375 75.984375 
z
" id="DejaVuSans-102"/>
      <path d="M 41.109375 46.296875 
Q 39.59375 47.171875 37.8125 47.578125 
Q 36.03125 48 33.890625 48 
Q 26.265625 48 22.1875 43.046875 
Q 18.109375 38.09375 18.109375 28.8125 
L 18.109375 0 
L 9.078125 0 
L 9.078125 54.6875 
L 18.109375 54.6875 
L 18.109375 46.1875 
Q 20.953125 51.171875 25.484375 53.578125 
Q 30.03125 56 36.53125 56 
Q 37.453125 56 38.578125 55.875 
Q 39.703125 55.765625 41.0625 55.515625 
z
" id="DejaVuSans-114"/>
      <path d="M 34.28125 27.484375 
Q 23.390625 27.484375 19.1875 25 
Q 14.984375 22.515625 14.984375 16.5 
Q 14.984375 11.71875 18.140625 8.90625 
Q 21.296875 6.109375 26.703125 6.109375 
Q 34.1875 6.109375 38.703125 11.40625 
Q 43.21875 16.703125 43.21875 25.484375 
L 43.21875 27.484375 
z
M 52.203125 31.203125 
L 52.203125 0 
L 43.21875 0 
L 43.21875 8.296875 
Q 40.140625 3.328125 35.546875 0.953125 
Q 30.953125 -1.421875 24.3125 -1.421875 
Q 15.921875 -1.421875 10.953125 3.296875 
Q 6 8.015625 6 15.921875 
Q 6 25.140625 12.171875 29.828125 
Q 18.359375 34.515625 30.609375 34.515625 
L 43.21875 34.515625 
L 43.21875 35.40625 
Q 43.21875 41.609375 39.140625 45 
Q 35.0625 48.390625 27.6875 48.390625 
Q 23 48.390625 18.546875 47.265625 
Q 14.109375 46.140625 10.015625 43.890625 
L 10.015625 52.203125 
Q 14.9375 54.109375 19.578125 55.046875 
Q 24.21875 56 28.609375 56 
Q 40.484375 56 46.34375 49.84375 
Q 52.203125 43.703125 52.203125 31.203125 
z
" id="DejaVuSans-97"/>
      <path d="M 52 44.1875 
Q 55.375 50.25 60.0625 53.125 
Q 64.75 56 71.09375 56 
Q 79.640625 56 84.28125 50.015625 
Q 88.921875 44.046875 88.921875 33.015625 
L 88.921875 0 
L 79.890625 0 
L 79.890625 32.71875 
Q 79.890625 40.578125 77.09375 44.375 
Q 74.3125 48.1875 68.609375 48.1875 
Q 61.625 48.1875 57.5625 43.546875 
Q 53.515625 38.921875 53.515625 30.90625 
L 53.515625 0 
L 44.484375 0 
L 44.484375 32.71875 
Q 44.484375 40.625 41.703125 44.40625 
Q 38.921875 48.1875 33.109375 48.1875 
Q 26.21875 48.1875 22.15625 43.53125 
Q 18.109375 38.875 18.109375 30.90625 
L 18.109375 0 
L 9.078125 0 
L 9.078125 54.6875 
L 18.109375 54.6875 
L 18.109375 46.1875 
Q 21.1875 51.21875 25.484375 53.609375 
Q 29.78125 56 35.6875 56 
Q 41.65625 56 45.828125 52.96875 
Q 50 49.953125 52 44.1875 
z
" id="DejaVuSans-109"/>
      <path d="M 56.203125 29.59375 
L 56.203125 25.203125 
L 14.890625 25.203125 
Q 15.484375 15.921875 20.484375 11.0625 
Q 25.484375 6.203125 34.421875 6.203125 
Q 39.59375 6.203125 44.453125 7.46875 
Q 49.3125 8.734375 54.109375 11.28125 
L 54.109375 2.78125 
Q 49.265625 0.734375 44.1875 -0.34375 
Q 39.109375 -1.421875 33.890625 -1.421875 
Q 20.796875 -1.421875 13.15625 6.1875 
Q 5.515625 13.8125 5.515625 26.8125 
Q 5.515625 40.234375 12.765625 48.109375 
Q 20.015625 56 32.328125 56 
Q 43.359375 56 49.78125 48.890625 
Q 56.203125 41.796875 56.203125 29.59375 
z
M 47.21875 32.234375 
Q 47.125 39.59375 43.09375 43.984375 
Q 39.0625 48.390625 32.421875 48.390625 
Q 24.90625 48.390625 20.390625 44.140625 
Q 15.875 39.890625 15.1875 32.171875 
z
" id="DejaVuSans-101"/>
      <path id="DejaVuSans-32"/>
      <path d="M 9.421875 54.6875 
L 18.40625 54.6875 
L 18.40625 0 
L 9.421875 0 
z
M 9.421875 75.984375 
L 18.40625 75.984375 
L 18.40625 64.59375 
L 9.421875 64.59375 
z
" id="DejaVuSans-105"/>
      <path d="M 54.890625 33.015625 
L 54.890625 0 
L 45.90625 0 
L 45.90625 32.71875 
Q 45.90625 40.484375 42.875 44.328125 
Q 39.84375 48.1875 33.796875 48.1875 
Q 26.515625 48.1875 22.3125 43.546875 
Q 18.109375 38.921875 18.109375 30.90625 
L 18.109375 0 
L 9.078125 0 
L 9.078125 54.6875 
L 18.109375 54.6875 
L 18.109375 46.1875 
Q 21.34375 51.125 25.703125 53.5625 
Q 30.078125 56 35.796875 56 
Q 45.21875 56 50.046875 50.171875 
Q 54.890625 44.34375 54.890625 33.015625 
z
" id="DejaVuSans-110"/>
      <path d="M 45.40625 46.390625 
L 45.40625 75.984375 
L 54.390625 75.984375 
L 54.390625 0 
L 45.40625 0 
L 45.40625 8.203125 
Q 42.578125 3.328125 38.25 0.953125 
Q 33.9375 -1.421875 27.875 -1.421875 
Q 17.96875 -1.421875 11.734375 6.484375 
Q 5.515625 14.40625 5.515625 27.296875 
Q 5.515625 40.1875 11.734375 48.09375 
Q 17.96875 56 27.875 56 
Q 33.9375 56 38.25 53.625 
Q 42.578125 51.265625 45.40625 46.390625 
z
M 14.796875 27.296875 
Q 14.796875 17.390625 18.875 11.75 
Q 22.953125 6.109375 30.078125 6.109375 
Q 37.203125 6.109375 41.296875 11.75 
Q 45.40625 17.390625 45.40625 27.296875 
Q 45.40625 37.203125 41.296875 42.84375 
Q 37.203125 48.484375 30.078125 48.484375 
Q 22.953125 48.484375 18.875 42.84375 
Q 14.796875 37.203125 14.796875 27.296875 
z
" id="DejaVuSans-100"/>
      <path d="M 54.890625 54.6875 
L 35.109375 28.078125 
L 55.90625 0 
L 45.3125 0 
L 29.390625 21.484375 
L 13.484375 0 
L 2.875 0 
L 24.125 28.609375 
L 4.6875 54.6875 
L 15.28125 54.6875 
L 29.78125 35.203125 
L 44.28125 54.6875 
z
" id="DejaVuSans-120"/>
     </defs>
     <g transform="translate(205.977187 335.860562)scale(0.1 -0.1)">
      <use xlink:href="#DejaVuSans-102"/>
      <use x="35.205078" xlink:href="#DejaVuSans-114"/>
      <use x="76.318359" xlink:href="#DejaVuSans-97"/>
      <use x="137.597656" xlink:href="#DejaVuSans-109"/>
      <use x="235.009766" xlink:href="#DejaVuSans-101"/>
      <use x="296.533203" xlink:href="#DejaVuSans-32"/>
      <use x="328.320312" xlink:href="#DejaVuSans-105"/>
      <use x="356.103516" xlink:href="#DejaVuSans-110"/>
      <use x="419.482422" xlink:href="#DejaVuSans-100"/>
      <use x="482.958984" xlink:href="#DejaVuSans-101"/>
      <use x="544.466797" xlink:href="#DejaVuSans-120"/>
     </g>
    </g>
   </g>
   <g id="matplotlib.axis_2">
    <g id="ytick_1">
     <g id="line2d_8">
      <defs>
       <path d="M 0 0 
L -3.5 0 
" id="mb4e62619a5" style="stroke:#000000;stroke-width:0.8;"/>
      </defs>
      <g>
       <use style="stroke:#000000;stroke-width:0.8;" x="57.6" xlink:href="#mb4e62619a5" y="283.994101"/>
      </g>
     </g>
     <g id="text_9">
      <!-- 0 -->
      <g transform="translate(44.2375 287.793319)scale(0.1 -0.1)">
       <use xlink:href="#DejaVuSans-48"/>
      </g>
     </g>
    </g>
    <g id="ytick_2">
     <g id="line2d_9">
      <g>
       <use style="stroke:#000000;stroke-width:0.8;" x="57.6" xlink:href="#mb4e62619a5" y="235.422876"/>
      </g>
     </g>
     <g id="text_10">
      <!-- 5 -->
      <g transform="translate(44.2375 239.222095)scale(0.1 -0.1)">
       <use xlink:href="#DejaVuSans-53"/>
      </g>
     </g>
    </g>
    <g id="ytick_3">
     <g id="line2d_10">
      <g>
       <use style="stroke:#000000;stroke-width:0.8;" x="57.6" xlink:href="#mb4e62619a5" y="186.851652"/>
      </g>
     </g>
     <g id="text_11">
      <!-- 10 -->
      <g transform="translate(37.875 190.650871)scale(0.1 -0.1)">
       <use xlink:href="#DejaVuSans-49"/>
       <use x="63.623047" xlink:href="#DejaVuSans-48"/>
      </g>
     </g>
    </g>
    <g id="ytick_4">
     <g id="line2d_11">
      <g>
       <use style="stroke:#000000;stroke-width:0.8;" x="57.6" xlink:href="#mb4e62619a5" y="138.280428"/>
      </g>
     </g>
     <g id="text_12">
      <!-- 15 -->
      <g transform="translate(37.875 142.079647)scale(0.1 -0.1)">
       <use xlink:href="#DejaVuSans-49"/>
       <use x="63.623047" xlink:href="#DejaVuSans-53"/>
      </g>
     </g>
    </g>
    <g id="ytick_5">
     <g id="line2d_12">
      <g>
       <use style="stroke:#000000;stroke-width:0.8;" x="57.6" xlink:href="#mb4e62619a5" y="89.709204"/>
      </g>
     </g>
     <g id="text_13">
      <!-- 20 -->
      <g transform="translate(37.875 93.508423)scale(0.1 -0.1)">
       <use xlink:href="#DejaVuSans-50"/>
       <use x="63.623047" xlink:href="#DejaVuSans-48"/>
      </g>
     </g>
    </g>
    <g id="text_14">
     <!-- Relative F Value -->
     <defs>
      <path d="M 44.390625 34.1875 
Q 47.5625 33.109375 50.5625 29.59375 
Q 53.5625 26.078125 56.59375 19.921875 
L 66.609375 0 
L 56 0 
L 46.6875 18.703125 
Q 43.0625 26.03125 39.671875 28.421875 
Q 36.28125 30.8125 30.421875 30.8125 
L 19.671875 30.8125 
L 19.671875 0 
L 9.8125 0 
L 9.8125 72.90625 
L 32.078125 72.90625 
Q 44.578125 72.90625 50.734375 67.671875 
Q 56.890625 62.453125 56.890625 51.90625 
Q 56.890625 45.015625 53.6875 40.46875 
Q 50.484375 35.9375 44.390625 34.1875 
z
M 19.671875 64.796875 
L 19.671875 38.921875 
L 32.078125 38.921875 
Q 39.203125 38.921875 42.84375 42.21875 
Q 46.484375 45.515625 46.484375 51.90625 
Q 46.484375 58.296875 42.84375 61.546875 
Q 39.203125 64.796875 32.078125 64.796875 
z
" id="DejaVuSans-82"/>
      <path d="M 9.421875 75.984375 
L 18.40625 75.984375 
L 18.40625 0 
L 9.421875 0 
z
" id="DejaVuSans-108"/>
      <path d="M 18.3125 70.21875 
L 18.3125 54.6875 
L 36.8125 54.6875 
L 36.8125 47.703125 
L 18.3125 47.703125 
L 18.3125 18.015625 
Q 18.3125 11.328125 20.140625 9.421875 
Q 21.96875 7.515625 27.59375 7.515625 
L 36.8125 7.515625 
L 36.8125 0 
L 27.59375 0 
Q 17.1875 0 13.234375 3.875 
Q 9.28125 7.765625 9.28125 18.015625 
L 9.28125 47.703125 
L 2.6875 47.703125 
L 2.6875 54.6875 
L 9.28125 54.6875 
L 9.28125 70.21875 
z
" id="DejaVuSans-116"/>
      <path d="M 2.984375 54.6875 
L 12.5 54.6875 
L 29.59375 8.796875 
L 46.6875 54.6875 
L 56.203125 54.6875 
L 35.6875 0 
L 23.484375 0 
z
" id="DejaVuSans-118"/>
      <path d="M 9.8125 72.90625 
L 51.703125 72.90625 
L 51.703125 64.59375 
L 19.671875 64.59375 
L 19.671875 43.109375 
L 48.578125 43.109375 
L 48.578125 34.8125 
L 19.671875 34.8125 
L 19.671875 0 
L 9.8125 0 
z
" id="DejaVuSans-70"/>
      <path d="M 28.609375 0 
L 0.78125 72.90625 
L 11.078125 72.90625 
L 34.1875 11.53125 
L 57.328125 72.90625 
L 67.578125 72.90625 
L 39.796875 0 
z
" id="DejaVuSans-86"/>
      <path d="M 8.5 21.578125 
L 8.5 54.6875 
L 17.484375 54.6875 
L 17.484375 21.921875 
Q 17.484375 14.15625 20.5 10.265625 
Q 23.53125 6.390625 29.59375 6.390625 
Q 36.859375 6.390625 41.078125 11.03125 
Q 45.3125 15.671875 45.3125 23.6875 
L 45.3125 54.6875 
L 54.296875 54.6875 
L 54.296875 0 
L 45.3125 0 
L 45.3125 8.40625 
Q 42.046875 3.421875 37.71875 1 
Q 33.40625 -1.421875 27.6875 -1.421875 
Q 18.265625 -1.421875 13.375 4.4375 
Q 8.5 10.296875 8.5 21.578125 
z
M 31.109375 56 
z
" id="DejaVuSans-117"/>
     </defs>
     <g transform="translate(31.795312 215.081125)rotate(-90)scale(0.1 -0.1)">
      <use xlink:href="#DejaVuSans-82"/>
      <use x="69.419922" xlink:href="#DejaVuSans-101"/>
      <use x="130.943359" xlink:href="#DejaVuSans-108"/>
      <use x="158.726562" xlink:href="#DejaVuSans-97"/>
      <use x="220.005859" xlink:href="#DejaVuSans-116"/>
      <use x="259.214844" xlink:href="#DejaVuSans-105"/>
      <use x="286.998047" xlink:href="#DejaVuSans-118"/>
      <use x="346.177734" xlink:href="#DejaVuSans-101"/>
      <use x="407.701172" xlink:href="#DejaVuSans-32"/>
      <use x="439.488281" xlink:href="#DejaVuSans-70"/>
      <use x="497.007812" xlink:href="#DejaVuSans-32"/>
      <use x="528.794922" xlink:href="#DejaVuSans-86"/>
      <use x="597.09375" xlink:href="#DejaVuSans-97"/>
      <use x="658.373047" xlink:href="#DejaVuSans-108"/>
      <use x="686.15625" xlink:href="#DejaVuSans-117"/>
      <use x="749.535156" xlink:href="#DejaVuSans-101"/>
     </g>
    </g>
   </g>
   <g id="line2d_13">
    <path clip-path="url(#p673b7ff0c9)" d="M 57.6 280.168183 
L 63.552 285.648013 
L 69.504 286.345446 
L 75.456 282.559381 
L 81.408 292.07436 
L 87.36 289.583528 
L 93.312 282.858281 
L 99.264 276.481751 
L 105.216 283.206998 
L 111.168 281.015065 
L 117.12 280.815799 
L 123.072 291.825276 
L 129.024 285.199663 
L 134.976 293.568859 
L 140.928 286.494896 
L 146.88 281.861948 
L 152.832 276.830468 
L 158.784 283.057548 
L 164.736 279.17185 
L 170.688 277.97625 
L 176.64 266.468607 
L 182.592 260.938959 
L 188.544 245.246718 
L 194.496 230.700259 
L 200.448 219.142798 
L 206.4 209.976537 
L 212.352 192.490896 
L 218.304 160.159897 
L 224.256 119.658968 
L 230.208 103.119844 
L 236.16 90.067884 
L 242.112 91.114033 
L 248.064 84.289154 
L 254.016 87.427602 
L 259.968 73.728026 
L 265.92 115.673637 
L 271.872 118.861902 
L 277.824 130.369546 
L 283.776 136.795892 
L 289.728 137.543142 
L 295.68 157.220715 
L 301.632 284.751313 
L 307.584 275.983585 
L 313.536 275.385785 
L 319.488 276.681018 
L 325.44 280.317632 
L 331.392 287.341779 
L 337.344 291.47656 
L 343.296 276.631201 
L 349.248 282.858281 
L 355.2 276.681018 
L 361.152 284.05388 
L 367.104 285.39893 
L 373.056 282.758648 
L 379.008 286.743979 
L 384.96 280.467082 
L 390.912 282.559381 
L 396.864 275.834135 
L 402.816 285.299296 
L 408.768 278.972583 
L 414.72 276.780651 
L 420.672 288.836278 
L 426.624 281.064882 
L 432.576 277.677351 
L 438.528 277.926434 
L 444.48 284.153514 
L 450.432 286.993062 
L 456.384 289.085361 
L 461.8 283.373723 
" style="fill:none;stroke:#1f77b4;stroke-linecap:square;stroke-width:1.5;"/>
   </g>
   <g id="line2d_14">
    <path clip-path="url(#p673b7ff0c9)" d="M 57.6 277.135968 
L 63.552 287.523854 
L 69.504 282.506657 
L 75.456 284.759582 
L 81.408 284.999248 
L 87.36 293.473081 
L 93.312 280.148873 
L 99.264 280.978556 
L 105.216 284.037739 
L 111.168 284.377448 
L 117.12 283.532049 
L 123.072 284.230889 
L 129.024 291.263117 
L 134.976 294.742927 
L 140.928 280.59352 
L 146.88 283.438832 
L 152.832 277.213871 
L 158.784 285.711549 
L 164.736 283.237788 
L 170.688 280.904198 
L 176.64 264.489298 
L 182.592 243.785343 
L 188.544 241.837894 
L 194.496 236.568899 
L 200.448 220.87517 
L 206.4 211.51216 
L 212.352 177.053132 
L 218.304 155.857777 
L 224.256 121.775671 
L 230.208 102.244926 
L 236.16 85.218322 
L 242.112 88.947794 
L 248.064 81.538246 
L 254.016 89.699172 
L 259.968 89.961191 
L 265.92 112.038085 
L 271.872 104.177717 
L 277.824 124.674434 
L 283.776 133.426618 
L 289.728 136.315575 
L 295.68 155.704406 
L 301.632 274.323494 
L 307.584 269.787787 
L 313.536 280.280848 
L 319.488 277.8648 
L 325.44 277.866291 
L 331.392 277.973949 
L 337.344 294.219548 
L 343.296 266.075268 
L 349.248 277.543685 
L 355.2 273.301127 
L 361.152 288.227268 
L 367.104 281.466711 
L 373.056 273.503809 
L 379.008 288.71901 
L 384.96 280.502353 
L 390.912 284.395538 
L 396.864 269.986074 
L 402.816 285.259026 
L 408.768 280.958468 
L 414.72 280.347936 
L 420.672 283.470371 
L 426.624 284.580571 
L 432.576 274.331727 
L 438.528 272.275344 
L 444.48 285.425836 
L 450.432 282.051954 
L 456.384 281.248413 
L 461.8 283.670155 
" style="fill:none;stroke:#ff7f0e;stroke-linecap:square;stroke-width:1.5;"/>
   </g>
   <g id="line2d_15">
    <path clip-path="url(#p673b7ff0c9)" d="M 57.6 275.820993 
L 63.552 290.139772 
L 69.504 282.308825 
L 75.456 285.115162 
L 81.408 282.480791 
L 87.36 291.500368 
L 93.312 282.004421 
L 99.264 281.858991 
L 105.216 284.953258 
L 111.168 283.758424 
L 117.12 286.596996 
L 123.072 281.712432 
L 129.024 289.033062 
L 134.976 295.488 
L 140.928 279.755579 
L 146.88 283.998582 
L 152.832 277.387922 
L 158.784 286.900483 
L 164.736 280.82787 
L 170.688 282.79699 
L 176.64 266.062362 
L 182.592 245.166695 
L 188.544 240.300829 
L 194.496 233.904198 
L 200.448 220.608211 
L 206.4 209.630703 
L 212.352 174.351064 
L 218.304 157.418972 
L 224.256 124.114336 
L 230.208 104.678232 
L 236.16 82.627126 
L 242.112 90.34184 
L 248.064 82.85436 
L 254.016 90.236618 
L 259.968 92.374582 
L 265.92 111.745088 
L 271.872 102.163552 
L 277.824 124.443761 
L 283.776 136.181298 
L 289.728 136.342308 
L 295.68 155.537015 
L 301.632 276.688994 
L 307.584 273.13794 
L 313.536 277.23583 
L 319.488 275.844997 
L 325.44 277.923401 
L 331.392 280.061509 
L 337.344 293.248018 
L 343.296 271.745019 
L 349.248 277.883447 
L 355.2 279.884415 
L 361.152 286.037744 
L 367.104 281.173954 
L 373.056 275.120159 
L 379.008 286.274248 
L 384.96 277.983896 
L 390.912 282.465823 
L 396.864 268.169202 
L 402.816 285.281692 
L 408.768 280.665061 
L 414.72 279.057403 
L 420.672 284.160583 
L 426.624 287.769636 
L 432.576 272.776955 
L 438.528 274.193497 
L 444.48 286.936583 
L 450.432 281.731549 
L 456.384 283.893943 
L 461.8 284.111311 
" style="fill:none;stroke:#2ca02c;stroke-linecap:square;stroke-width:1.5;"/>
   </g>
   <g id="line2d_16">
    <path clip-path="url(#p673b7ff0c9)" d="M 57.6 282.062661 
L 63.552 288.24626 
L 69.504 280.578082 
L 75.456 282.224565 
L 81.408 279.864607 
L 87.36 288.590962 
L 93.312 283.157571 
L 99.264 284.278434 
L 105.216 285.969162 
L 111.168 284.968702 
L 117.12 286.971298 
L 123.072 281.620855 
L 129.024 287.164011 
L 134.976 293.904119 
L 140.928 280.3277 
L 146.88 282.453135 
L 152.832 277.228667 
L 158.784 289.510248 
L 164.736 280.078394 
L 170.688 282.280075 
L 176.64 270.17673 
L 182.592 249.604572 
L 188.544 240.040054 
L 194.496 233.178187 
L 200.448 219.081973 
L 206.4 208.79146 
L 212.352 172.111392 
L 218.304 153.284908 
L 224.256 115.633317 
L 230.208 100.474178 
L 236.16 81.902567 
L 242.112 92.90594 
L 248.064 77.437782 
L 254.016 89.936485 
L 259.968 92.871516 
L 265.92 109.085594 
L 271.872 102.780876 
L 277.824 122.91095 
L 283.776 140.689646 
L 289.728 133.650587 
L 295.68 154.504323 
L 301.632 276.439677 
L 307.584 277.506217 
L 313.536 277.888828 
L 319.488 274.855138 
L 325.44 277.179598 
L 331.392 281.258821 
L 337.344 291.249041 
L 343.296 276.784588 
L 349.248 279.185471 
L 355.2 282.724154 
L 361.152 287.220462 
L 367.104 279.879747 
L 373.056 273.816914 
L 379.008 285.649819 
L 384.96 275.729241 
L 390.912 285.274386 
L 396.864 266.594942 
L 402.816 285.425212 
L 408.768 277.749463 
L 414.72 277.534929 
L 420.672 283.417542 
L 426.624 287.791793 
L 432.576 274.073532 
L 438.528 277.808999 
L 444.48 287.831072 
L 450.432 281.058855 
L 456.384 281.999958 
L 461.8 284.780403 
" style="fill:none;stroke:#d62728;stroke-linecap:square;stroke-width:1.5;"/>
   </g>
   <g id="line2d_17">
    <path clip-path="url(#p673b7ff0c9)" d="M 57.6 283.815545 
L 63.552 285.118945 
L 69.504 281.715602 
L 75.456 277.521547 
L 81.408 281.715602 
L 87.36 290.638871 
L 93.312 288.956739 
L 99.264 285.18994 
L 105.216 284.706825 
L 111.168 280.561388 
L 117.12 286.406165 
L 123.072 280.235539 
L 129.024 291.337533 
L 134.976 290.199894 
L 140.928 282.9046 
L 146.88 279.559999 
L 152.832 274.387312 
L 158.784 291.852911 
L 164.736 276.146217 
L 170.688 280.104247 
L 176.64 273.932845 
L 182.592 252.208261 
L 188.544 235.412776 
L 194.496 233.696001 
L 200.448 215.535718 
L 206.4 208.965323 
L 212.352 165.379085 
L 218.304 147.531324 
L 224.256 108.559391 
L 230.208 96.729739 
L 236.16 68.226352 
L 242.112 88.282833 
L 248.064 82.921227 
L 254.016 81.019371 
L 259.968 99.973138 
L 265.92 102.950572 
L 271.872 98.573977 
L 277.824 112.937007 
L 283.776 137.876609 
L 289.728 129.261945 
L 295.68 151.80255 
L 301.632 278.473823 
L 307.584 279.079082 
L 313.536 281.100062 
L 319.488 277.888346 
L 325.44 276.085433 
L 331.392 281.825669 
L 337.344 290.500698 
L 343.296 283.419856 
L 349.248 281.738934 
L 355.2 283.886948 
L 361.152 288.389927 
L 367.104 281.643527 
L 373.056 271.388638 
L 379.008 286.032024 
L 384.96 275.512873 
L 390.912 279.032823 
L 396.864 267.493688 
L 402.816 283.161377 
L 408.768 281.290379 
L 414.72 277.329851 
L 420.672 287.445608 
L 426.624 285.315794 
L 432.576 273.181147 
L 438.528 283.703898 
L 444.48 286.24912 
L 450.432 283.527161 
L 456.384 279.443264 
L 461.8 284.538858 
" style="fill:none;stroke:#9467bd;stroke-linecap:square;stroke-width:1.5;"/>
   </g>
   <g id="line2d_18">
    <path clip-path="url(#p673b7ff0c9)" d="M 57.6 283.933672 
L 63.552 284.89188 
L 69.504 290.029524 
L 75.456 273.740556 
L 81.408 284.03557 
L 87.36 289.532855 
L 93.312 284.637603 
L 99.264 284.68343 
L 105.216 284.19622 
L 111.168 280.259695 
L 117.12 284.64605 
L 123.072 279.402531 
L 129.024 289.198385 
L 134.976 288.2118 
L 140.928 271.991725 
L 146.88 278.035738 
L 152.832 280.436544 
L 158.784 288.175103 
L 164.736 271.756661 
L 170.688 278.294195 
L 176.64 269.426215 
L 182.592 252.990746 
L 188.544 235.644475 
L 194.496 233.565978 
L 200.448 210.69084 
L 206.4 204.780566 
L 212.352 162.080614 
L 218.304 138.454482 
L 224.256 85.528596 
L 230.208 79.161104 
L 236.16 61.352121 
L 242.112 63.947844 
L 248.064 65.118781 
L 254.016 66.646178 
L 259.968 112.443843 
L 265.92 98.686713 
L 271.872 102.146981 
L 277.824 108.795239 
L 283.776 122.901383 
L 289.728 106.681085 
L 295.68 137.415841 
L 301.632 286.579967 
L 307.584 278.443012 
L 313.536 273.95688 
L 319.488 279.40923 
L 325.44 283.834547 
L 331.392 279.54877 
L 337.344 285.326274 
L 343.296 280.825114 
L 349.248 279.280345 
L 355.2 278.666089 
L 361.152 287.118143 
L 367.104 283.554748 
L 373.056 268.332981 
L 379.008 279.335596 
L 384.96 273.994263 
L 390.912 279.007655 
L 396.864 267.330568 
L 402.816 275.683218 
L 408.768 281.653799 
L 414.72 273.496026 
L 420.672 279.710088 
L 426.624 281.386231 
L 432.576 275.394026 
L 438.528 281.069216 
L 444.48 288.28286 
L 450.432 285.341534 
L 456.384 282.550518 
L 461.8 283.619698 
" style="fill:none;stroke:#8c564b;stroke-linecap:square;stroke-width:1.5;"/>
   </g>
   <g id="line2d_19">
    <path clip-path="url(#p673b7ff0c9)" d="M 57.6 280.005601 
L 63.552 285.280483 
L 69.504 288.210175 
L 75.456 275.264858 
L 81.408 283.96983 
L 87.36 288.117188 
L 93.312 282.333134 
L 99.264 282.745346 
L 105.216 286.854888 
L 111.168 287.159502 
L 117.12 283.422035 
L 123.072 284.844716 
L 129.024 287.95961 
L 134.976 289.526124 
L 140.928 269.014858 
L 146.88 278.62596 
L 152.832 282.336556 
L 158.784 287.777946 
L 164.736 271.035574 
L 170.688 276.483288 
L 176.64 270.285081 
L 182.592 246.094951 
L 188.544 245.368489 
L 194.496 236.112449 
L 200.448 215.728312 
L 206.4 212.19339 
L 212.352 168.620112 
L 218.304 142.444012 
L 224.256 84.837941 
L 230.208 69.483832 
L 236.16 53.568 
L 242.112 72.194508 
L 248.064 72.366584 
L 254.016 67.321542 
L 259.968 105.221692 
L 265.92 100.38178 
L 271.872 97.52135 
L 277.824 94.010578 
L 283.776 127.331222 
L 289.728 105.746091 
L 295.68 127.263723 
L 301.632 287.912544 
L 307.584 279.518879 
L 313.536 275.920885 
L 319.488 277.546234 
L 325.44 285.758109 
L 331.392 278.749758 
L 337.344 281.967184 
L 343.296 284.08909 
L 349.248 277.176073 
L 355.2 279.847399 
L 361.152 282.837719 
L 367.104 287.186886 
L 373.056 275.081145 
L 379.008 279.1518 
L 384.96 275.71326 
L 390.912 280.411641 
L 396.864 275.435679 
L 402.816 277.210978 
L 408.768 286.072804 
L 414.72 273.830655 
L 420.672 275.797529 
L 426.624 278.519557 
L 432.576 275.693616 
L 438.528 280.471546 
L 444.48 288.92016 
L 450.432 284.749767 
L 456.384 286.70935 
L 461.8 285.171445 
" style="fill:none;stroke:#e377c2;stroke-linecap:square;stroke-width:1.5;"/>
   </g>
   <g id="line2d_20">
    <path clip-path="url(#p673b7ff0c9)" d="M 57.6 281.152441 
L 63.552 281.663717 
L 69.504 281.039534 
L 75.456 283.551428 
L 81.408 287.542427 
L 87.36 287.761304 
L 93.312 281.277982 
L 99.264 284.496186 
L 105.216 284.434095 
L 111.168 287.02189 
L 117.12 279.387134 
L 123.072 286.272505 
L 129.024 293.360911 
L 134.976 288.327183 
L 140.928 272.494138 
L 146.88 276.622641 
L 152.832 281.106994 
L 158.784 285.095935 
L 164.736 278.218117 
L 170.688 282.313338 
L 176.64 281.891984 
L 182.592 254.681271 
L 188.544 263.388383 
L 194.496 265.09648 
L 200.448 239.320322 
L 206.4 237.898488 
L 212.352 225.293609 
L 218.304 200.556844 
L 224.256 177.035748 
L 230.208 181.164955 
L 236.16 162.4008 
L 242.112 174.072262 
L 248.064 168.313818 
L 254.016 188.130878 
L 259.968 196.321711 
L 265.92 190.698817 
L 271.872 176.159939 
L 277.824 174.865286 
L 283.776 191.437945 
L 289.728 183.938537 
L 295.68 204.148588 
L 301.632 286.054063 
L 307.584 271.858837 
L 313.536 279.928509 
L 319.488 277.210503 
L 325.44 283.719047 
L 331.392 282.902257 
L 337.344 285.837133 
L 343.296 280.893259 
L 349.248 282.230864 
L 355.2 282.82982 
L 361.152 284.884756 
L 367.104 281.152441 
L 373.056 285.820532 
L 379.008 284.973067 
L 384.96 283.170478 
L 390.912 278.49955 
L 396.864 281.5079 
L 402.816 282.115742 
L 408.768 288.770454 
L 414.72 279.472534 
L 420.672 274.796886 
L 426.624 283.646666 
L 432.576 280.334399 
L 438.528 280.307852 
L 444.48 288.527598 
L 450.432 283.820815 
L 456.384 283.833214 
L 461.8 281.352501 
" style="fill:none;stroke:#7f7f7f;stroke-linecap:square;stroke-width:1.5;"/>
   </g>
   <g id="patch_3">
    <path d="M 57.6 307.584 
L 57.6 41.472 
" style="fill:none;stroke:#000000;stroke-linecap:square;stroke-linejoin:miter;stroke-width:0.8;"/>
   </g>
   <g id="patch_4">
    <path d="M 414.72 307.584 
L 414.72 41.472 
" style="fill:none;stroke:#000000;stroke-linecap:square;stroke-linejoin:miter;stroke-width:0.8;"/>
   </g>
   <g id="patch_5">
    <path d="M 57.6 307.584 
L 414.72 307.584 
" style="fill:none;stroke:#000000;stroke-linecap:square;stroke-linejoin:miter;stroke-width:0.8;"/>
   </g>
   <g id="patch_6">
    <path d="M 57.6 41.472 
L 414.72 41.472 
" style="fill:none;stroke:#000000;stroke-linecap:square;stroke-linejoin:miter;stroke-width:0.8;"/>
   </g>
   <g id="legend_1">
    <g id="patch_7">
     <path d="M 434.576 176.575125 
L 604.255688 176.575125 
Q 606.255688 176.575125 606.255688 174.575125 
L 606.255688 43.472 
Q 606.255688 41.472 604.255688 41.472 
L 434.576 41.472 
Q 432.576 41.472 432.576 43.472 
L 432.576 174.575125 
Q 432.576 176.575125 434.576 176.575125 
z
" style="fill:#ffffff;opacity:0.8;stroke:#cccccc;stroke-linejoin:miter;"/>
    </g>
    <g id="text_15">
     <!-- Ball Size -->
     <defs>
      <path d="M 19.671875 34.8125 
L 19.671875 8.109375 
L 35.5 8.109375 
Q 43.453125 8.109375 47.28125 11.40625 
Q 51.125 14.703125 51.125 21.484375 
Q 51.125 28.328125 47.28125 31.5625 
Q 43.453125 34.8125 35.5 34.8125 
z
M 19.671875 64.796875 
L 19.671875 42.828125 
L 34.28125 42.828125 
Q 41.5 42.828125 45.03125 45.53125 
Q 48.578125 48.25 48.578125 53.8125 
Q 48.578125 59.328125 45.03125 62.0625 
Q 41.5 64.796875 34.28125 64.796875 
z
M 9.8125 72.90625 
L 35.015625 72.90625 
Q 46.296875 72.90625 52.390625 68.21875 
Q 58.5 63.53125 58.5 54.890625 
Q 58.5 48.1875 55.375 44.234375 
Q 52.25 40.28125 46.1875 39.3125 
Q 53.46875 37.75 57.5 32.78125 
Q 61.53125 27.828125 61.53125 20.40625 
Q 61.53125 10.640625 54.890625 5.3125 
Q 48.25 0 35.984375 0 
L 9.8125 0 
z
" id="DejaVuSans-66"/>
      <path d="M 53.515625 70.515625 
L 53.515625 60.890625 
Q 47.90625 63.578125 42.921875 64.890625 
Q 37.9375 66.21875 33.296875 66.21875 
Q 25.25 66.21875 20.875 63.09375 
Q 16.5 59.96875 16.5 54.203125 
Q 16.5 49.359375 19.40625 46.890625 
Q 22.3125 44.4375 30.421875 42.921875 
L 36.375 41.703125 
Q 47.40625 39.59375 52.65625 34.296875 
Q 57.90625 29 57.90625 20.125 
Q 57.90625 9.515625 50.796875 4.046875 
Q 43.703125 -1.421875 29.984375 -1.421875 
Q 24.8125 -1.421875 18.96875 -0.25 
Q 13.140625 0.921875 6.890625 3.21875 
L 6.890625 13.375 
Q 12.890625 10.015625 18.65625 8.296875 
Q 24.421875 6.59375 29.984375 6.59375 
Q 38.421875 6.59375 43.015625 9.90625 
Q 47.609375 13.234375 47.609375 19.390625 
Q 47.609375 24.75 44.3125 27.78125 
Q 41.015625 30.8125 33.5 32.328125 
L 27.484375 33.5 
Q 16.453125 35.6875 11.515625 40.375 
Q 6.59375 45.0625 6.59375 53.421875 
Q 6.59375 63.09375 13.40625 68.65625 
Q 20.21875 74.21875 32.171875 74.21875 
Q 37.3125 74.21875 42.625 73.28125 
Q 47.953125 72.359375 53.515625 70.515625 
z
" id="DejaVuSans-83"/>
      <path d="M 5.515625 54.6875 
L 48.1875 54.6875 
L 48.1875 46.484375 
L 14.40625 7.171875 
L 48.1875 7.171875 
L 48.1875 0 
L 4.296875 0 
L 4.296875 8.203125 
L 38.09375 47.515625 
L 5.515625 47.515625 
z
" id="DejaVuSans-122"/>
     </defs>
     <g transform="translate(498.290063 53.070438)scale(0.1 -0.1)">
      <use xlink:href="#DejaVuSans-66"/>
      <use x="68.603516" xlink:href="#DejaVuSans-97"/>
      <use x="129.882812" xlink:href="#DejaVuSans-108"/>
      <use x="157.666016" xlink:href="#DejaVuSans-108"/>
      <use x="185.449219" xlink:href="#DejaVuSans-32"/>
      <use x="217.236328" xlink:href="#DejaVuSans-83"/>
      <use x="280.712891" xlink:href="#DejaVuSans-105"/>
      <use x="308.496094" xlink:href="#DejaVuSans-122"/>
      <use x="360.986328" xlink:href="#DejaVuSans-101"/>
     </g>
    </g>
    <g id="line2d_21">
     <path d="M 436.576 64.248563 
L 456.576 64.248563 
" style="fill:none;stroke:#1f77b4;stroke-linecap:square;stroke-width:1.5;"/>
    </g>
    <g id="line2d_22"/>
    <g id="text_16">
     <!-- No Background Subtraction -->
     <defs>
      <path d="M 9.8125 72.90625 
L 23.09375 72.90625 
L 55.421875 11.921875 
L 55.421875 72.90625 
L 64.984375 72.90625 
L 64.984375 0 
L 51.703125 0 
L 19.390625 60.984375 
L 19.390625 0 
L 9.8125 0 
z
" id="DejaVuSans-78"/>
      <path d="M 30.609375 48.390625 
Q 23.390625 48.390625 19.1875 42.75 
Q 14.984375 37.109375 14.984375 27.296875 
Q 14.984375 17.484375 19.15625 11.84375 
Q 23.34375 6.203125 30.609375 6.203125 
Q 37.796875 6.203125 41.984375 11.859375 
Q 46.1875 17.53125 46.1875 27.296875 
Q 46.1875 37.015625 41.984375 42.703125 
Q 37.796875 48.390625 30.609375 48.390625 
z
M 30.609375 56 
Q 42.328125 56 49.015625 48.375 
Q 55.71875 40.765625 55.71875 27.296875 
Q 55.71875 13.875 49.015625 6.21875 
Q 42.328125 -1.421875 30.609375 -1.421875 
Q 18.84375 -1.421875 12.171875 6.21875 
Q 5.515625 13.875 5.515625 27.296875 
Q 5.515625 40.765625 12.171875 48.375 
Q 18.84375 56 30.609375 56 
z
" id="DejaVuSans-111"/>
      <path d="M 48.78125 52.59375 
L 48.78125 44.1875 
Q 44.96875 46.296875 41.140625 47.34375 
Q 37.3125 48.390625 33.40625 48.390625 
Q 24.65625 48.390625 19.8125 42.84375 
Q 14.984375 37.3125 14.984375 27.296875 
Q 14.984375 17.28125 19.8125 11.734375 
Q 24.65625 6.203125 33.40625 6.203125 
Q 37.3125 6.203125 41.140625 7.25 
Q 44.96875 8.296875 48.78125 10.40625 
L 48.78125 2.09375 
Q 45.015625 0.34375 40.984375 -0.53125 
Q 36.96875 -1.421875 32.421875 -1.421875 
Q 20.0625 -1.421875 12.78125 6.34375 
Q 5.515625 14.109375 5.515625 27.296875 
Q 5.515625 40.671875 12.859375 48.328125 
Q 20.21875 56 33.015625 56 
Q 37.15625 56 41.109375 55.140625 
Q 45.0625 54.296875 48.78125 52.59375 
z
" id="DejaVuSans-99"/>
      <path d="M 9.078125 75.984375 
L 18.109375 75.984375 
L 18.109375 31.109375 
L 44.921875 54.6875 
L 56.390625 54.6875 
L 27.390625 29.109375 
L 57.625 0 
L 45.90625 0 
L 18.109375 26.703125 
L 18.109375 0 
L 9.078125 0 
z
" id="DejaVuSans-107"/>
      <path d="M 45.40625 27.984375 
Q 45.40625 37.75 41.375 43.109375 
Q 37.359375 48.484375 30.078125 48.484375 
Q 22.859375 48.484375 18.828125 43.109375 
Q 14.796875 37.75 14.796875 27.984375 
Q 14.796875 18.265625 18.828125 12.890625 
Q 22.859375 7.515625 30.078125 7.515625 
Q 37.359375 7.515625 41.375 12.890625 
Q 45.40625 18.265625 45.40625 27.984375 
z
M 54.390625 6.78125 
Q 54.390625 -7.171875 48.1875 -13.984375 
Q 42 -20.796875 29.203125 -20.796875 
Q 24.46875 -20.796875 20.265625 -20.09375 
Q 16.0625 -19.390625 12.109375 -17.921875 
L 12.109375 -9.1875 
Q 16.0625 -11.328125 19.921875 -12.34375 
Q 23.78125 -13.375 27.78125 -13.375 
Q 36.625 -13.375 41.015625 -8.765625 
Q 45.40625 -4.15625 45.40625 5.171875 
L 45.40625 9.625 
Q 42.625 4.78125 38.28125 2.390625 
Q 33.9375 0 27.875 0 
Q 17.828125 0 11.671875 7.65625 
Q 5.515625 15.328125 5.515625 27.984375 
Q 5.515625 40.671875 11.671875 48.328125 
Q 17.828125 56 27.875 56 
Q 33.9375 56 38.28125 53.609375 
Q 42.625 51.21875 45.40625 46.390625 
L 45.40625 54.6875 
L 54.390625 54.6875 
z
" id="DejaVuSans-103"/>
      <path d="M 48.6875 27.296875 
Q 48.6875 37.203125 44.609375 42.84375 
Q 40.53125 48.484375 33.40625 48.484375 
Q 26.265625 48.484375 22.1875 42.84375 
Q 18.109375 37.203125 18.109375 27.296875 
Q 18.109375 17.390625 22.1875 11.75 
Q 26.265625 6.109375 33.40625 6.109375 
Q 40.53125 6.109375 44.609375 11.75 
Q 48.6875 17.390625 48.6875 27.296875 
z
M 18.109375 46.390625 
Q 20.953125 51.265625 25.265625 53.625 
Q 29.59375 56 35.59375 56 
Q 45.5625 56 51.78125 48.09375 
Q 58.015625 40.1875 58.015625 27.296875 
Q 58.015625 14.40625 51.78125 6.484375 
Q 45.5625 -1.421875 35.59375 -1.421875 
Q 29.59375 -1.421875 25.265625 0.953125 
Q 20.953125 3.328125 18.109375 8.203125 
L 18.109375 0 
L 9.078125 0 
L 9.078125 75.984375 
L 18.109375 75.984375 
z
" id="DejaVuSans-98"/>
     </defs>
     <g transform="translate(464.576 67.748563)scale(0.1 -0.1)">
      <use xlink:href="#DejaVuSans-78"/>
      <use x="74.804688" xlink:href="#DejaVuSans-111"/>
      <use x="135.986328" xlink:href="#DejaVuSans-32"/>
      <use x="167.773438" xlink:href="#DejaVuSans-66"/>
      <use x="236.376953" xlink:href="#DejaVuSans-97"/>
      <use x="297.65625" xlink:href="#DejaVuSans-99"/>
      <use x="352.636719" xlink:href="#DejaVuSans-107"/>
      <use x="410.546875" xlink:href="#DejaVuSans-103"/>
      <use x="474.023438" xlink:href="#DejaVuSans-114"/>
      <use x="515.105469" xlink:href="#DejaVuSans-111"/>
      <use x="576.287109" xlink:href="#DejaVuSans-117"/>
      <use x="639.666016" xlink:href="#DejaVuSans-110"/>
      <use x="703.044922" xlink:href="#DejaVuSans-100"/>
      <use x="766.521484" xlink:href="#DejaVuSans-32"/>
      <use x="798.308594" xlink:href="#DejaVuSans-83"/>
      <use x="861.785156" xlink:href="#DejaVuSans-117"/>
      <use x="925.164062" xlink:href="#DejaVuSans-98"/>
      <use x="988.640625" xlink:href="#DejaVuSans-116"/>
      <use x="1027.849609" xlink:href="#DejaVuSans-114"/>
      <use x="1068.962891" xlink:href="#DejaVuSans-97"/>
      <use x="1130.242188" xlink:href="#DejaVuSans-99"/>
      <use x="1185.222656" xlink:href="#DejaVuSans-116"/>
      <use x="1224.431641" xlink:href="#DejaVuSans-105"/>
      <use x="1252.214844" xlink:href="#DejaVuSans-111"/>
      <use x="1313.396484" xlink:href="#DejaVuSans-110"/>
     </g>
    </g>
    <g id="line2d_23">
     <path d="M 436.576 78.926688 
L 456.576 78.926688 
" style="fill:none;stroke:#ff7f0e;stroke-linecap:square;stroke-width:1.5;"/>
    </g>
    <g id="line2d_24"/>
    <g id="text_17">
     <!-- 100 -->
     <g transform="translate(464.576 82.426688)scale(0.1 -0.1)">
      <use xlink:href="#DejaVuSans-49"/>
      <use x="63.623047" xlink:href="#DejaVuSans-48"/>
      <use x="127.246094" xlink:href="#DejaVuSans-48"/>
     </g>
    </g>
    <g id="line2d_25">
     <path d="M 436.576 93.604813 
L 456.576 93.604813 
" style="fill:none;stroke:#2ca02c;stroke-linecap:square;stroke-width:1.5;"/>
    </g>
    <g id="line2d_26"/>
    <g id="text_18">
     <!-- 70 -->
     <defs>
      <path d="M 8.203125 72.90625 
L 55.078125 72.90625 
L 55.078125 68.703125 
L 28.609375 0 
L 18.3125 0 
L 43.21875 64.59375 
L 8.203125 64.59375 
z
" id="DejaVuSans-55"/>
     </defs>
     <g transform="translate(464.576 97.104813)scale(0.1 -0.1)">
      <use xlink:href="#DejaVuSans-55"/>
      <use x="63.623047" xlink:href="#DejaVuSans-48"/>
     </g>
    </g>
    <g id="line2d_27">
     <path d="M 436.576 108.282938 
L 456.576 108.282938 
" style="fill:none;stroke:#d62728;stroke-linecap:square;stroke-width:1.5;"/>
    </g>
    <g id="line2d_28"/>
    <g id="text_19">
     <!-- 50 -->
     <g transform="translate(464.576 111.782938)scale(0.1 -0.1)">
      <use xlink:href="#DejaVuSans-53"/>
      <use x="63.623047" xlink:href="#DejaVuSans-48"/>
     </g>
    </g>
    <g id="line2d_29">
     <path d="M 436.576 122.961063 
L 456.576 122.961063 
" style="fill:none;stroke:#9467bd;stroke-linecap:square;stroke-width:1.5;"/>
    </g>
    <g id="line2d_30"/>
    <g id="text_20">
     <!-- 30 -->
     <g transform="translate(464.576 126.461063)scale(0.1 -0.1)">
      <use xlink:href="#DejaVuSans-51"/>
      <use x="63.623047" xlink:href="#DejaVuSans-48"/>
     </g>
    </g>
    <g id="line2d_31">
     <path d="M 436.576 137.639188 
L 456.576 137.639188 
" style="fill:none;stroke:#8c564b;stroke-linecap:square;stroke-width:1.5;"/>
    </g>
    <g id="line2d_32"/>
    <g id="text_21">
     <!-- 10 -->
     <g transform="translate(464.576 141.139188)scale(0.1 -0.1)">
      <use xlink:href="#DejaVuSans-49"/>
      <use x="63.623047" xlink:href="#DejaVuSans-48"/>
     </g>
    </g>
    <g id="line2d_33">
     <path d="M 436.576 152.317313 
L 456.576 152.317313 
" style="fill:none;stroke:#e377c2;stroke-linecap:square;stroke-width:1.5;"/>
    </g>
    <g id="line2d_34"/>
    <g id="text_22">
     <!-- 5 -->
     <g transform="translate(464.576 155.817313)scale(0.1 -0.1)">
      <use xlink:href="#DejaVuSans-53"/>
     </g>
    </g>
    <g id="line2d_35">
     <path d="M 436.576 166.995438 
L 456.576 166.995438 
" style="fill:none;stroke:#7f7f7f;stroke-linecap:square;stroke-width:1.5;"/>
    </g>
    <g id="line2d_36"/>
    <g id="text_23">
     <!-- 1 -->
     <g transform="translate(464.576 170.495438)scale(0.1 -0.1)">
      <use xlink:href="#DejaVuSans-49"/>
     </g>
    </g>
   </g>
  </g>
 </g>
 <defs>
  <clipPath id="p673b7ff0c9">
   <rect height="266.112" width="357.12" x="57.6" y="41.472"/>
  </clipPath>
 </defs>
</svg>
