<svg width="1014" height="1005" xmlns="http://www.w3.org/2000/svg"><path d="M419 374 418 375 418 376 417 377 417 378 417 379 416 380 415 380 414 380 413 380 413 381 414 382 415 383 416 384 416 385 415 386 414 387 413 387 412 386 411 386 410 386 409 386 408 386 407 387 407 388 407 389 407 390 408 391 409 391 410 391 411 392 412 392 413 392 414 393 415 393 416 393 417 392 417 391 417 390 417 389 417 388 417 387 417 386 417 385 417 384 417 383 417 382 416 381 417 380 418 379 419 379 420 380 421 380 422 379 423 379 423 378 423 377 423 376 422 375 421 374 420 374 "/></svg>